<?xml version="1.0" standalone="no"?><!DOCTYPE svg PUBLIC "-//W3C//DTD SVG 1.1//EN" "http://www.w3.org/Graphics/SVG/1.1/DTD/svg11.dtd"><svg height="1200" legacy-metrics="false" node-id="1" sillyvg="true" template-height="1200" template-width="1200" version="1.1" viewBox="0 0 1200 1200" width="1200" xmlns="http://www.w3.org/2000/svg" xmlns:xlink="http://www.w3.org/1999/xlink"><defs node-id="113"><linearGradient gradientUnits="userSpaceOnUse" id="SVGID_1_" node-id="5" x1="612.5138" x2="614.4564" y1="959.6361" y2="826.3212"><stop offset="0.000000992013" stop-color="#ffdbd4"></stop><stop offset="1" stop-color="#ffbfaa"></stop></linearGradient><linearGradient gradientUnits="userSpaceOnUse" id="SVGID_00000067948043410754306610000013215841572664995234_" node-id="9" x1="613.4064" x2="601.2123" y1="222.9075" y2="856.4008"><stop offset="0.0000004984026" stop-color="#ffdbd4"></stop><stop offset="1" stop-color="#ffd1bf"></stop></linearGradient><linearGradient gradientUnits="userSpaceOnUse" id="SVGID_00000160889768968601412780000008111436685543184818_" node-id="15" x1="509.2506" x2="707.886" y1="940.3417" y2="940.3417"><stop offset="0.000000876997" stop-color="#e3d6d3"></stop><stop offset="1" stop-color="#dedede"></stop></linearGradient><linearGradient gradientUnits="userSpaceOnUse" id="SVGID_00000086680727764851036470000007692062261192998822_" node-id="23" x1="817.4715" x2="878.8196" y1="673.578" y2="529.6378"><stop offset="0.0000004984026" stop-color="#ffdbd4"></stop><stop offset="1" stop-color="#ffd1bf"></stop></linearGradient><linearGradient gradientUnits="userSpaceOnUse" id="SVGID_00000166656538718951574890000008575120021898260645_" node-id="27" x1="865.7809" x2="863.2419" y1="540.1668" y2="672.067"><stop offset="0.000000258786" stop-color="#fac1b6"></stop><stop offset="1" stop-color="#ffded1"></stop></linearGradient><linearGradient gradientUnits="userSpaceOnUse" id="SVGID_00000150786012024088682730000015430635180767938212_" node-id="31" x1="865.7809" x2="863.2419" y1="540.1749" y2="672.0751"><stop offset="0.000000258786" stop-color="#fac1b6"></stop><stop offset="1" stop-color="#ffded1"></stop></linearGradient><linearGradient gradientUnits="userSpaceOnUse" id="SVGID_00000101792629481947521070000015610213229752519812_" node-id="36" x1="-1324.8247" x2="-1386.1729" y1="671.1686" y2="527.2284"><stop offset="0.0000004984026" stop-color="#ffdbd4"></stop><stop offset="1" stop-color="#ffd1bf"></stop></linearGradient><linearGradient gradientUnits="userSpaceOnUse" id="SVGID_00000080925042785443287650000009035703777424726672_" node-id="40" x1="-1373.134" x2="-1370.5951" y1="537.7574" y2="669.6576"><stop offset="0.000000258786" stop-color="#fac1b6"></stop><stop offset="1" stop-color="#ffded1"></stop></linearGradient><linearGradient gradientUnits="userSpaceOnUse" id="SVGID_00000121264520010805193810000002746059646100178347_" node-id="70" x1="602.2525" x2="605.879" y1="193.7417" y2="429.4665"><stop offset="0" stop-color="#333540"></stop><stop offset="1" stop-color="#1a1b21"></stop></linearGradient><linearGradient gradientUnits="userSpaceOnUse" id="SVGID_00000063602895656018901820000010871340821784916659_" node-id="74" x1="605.1356" x2="607.3531" y1="1021.6614" y2="869.4808"><stop offset="0.0000008722046" stop-color="#ffd08f"></stop><stop offset="1" stop-color="#ffc16a"></stop></linearGradient><linearGradient gradientUnits="userSpaceOnUse" id="SVGID_00000008148728283561378260000013374430947407610012_" node-id="78" x1="605.2596" x2="607.8559" y1="1073.09" y2="894.9175"><stop offset="0.000000876997" stop-color="#323a4c"></stop><stop offset="1" stop-color="#525f7d"></stop></linearGradient><radialGradient cx="589.7712" cy="904.8488" fx="589.7712" fy="904.8488" gradientUnits="userSpaceOnUse" id="SVGID_00000102504614999362093770000012902457961450385053_" node-id="83" r="58.6276"><stop offset="0.000000761981" stop-color="#303747"></stop><stop offset="1" stop-color="#404a61"></stop></radialGradient><radialGradient cx="621.8888" cy="901.874" fx="621.8888" fy="901.874" gradientUnits="userSpaceOnUse" id="SVGID_00000075142153179160531140000008844521803501454467_" node-id="89" r="41.8272"><stop offset="0.000000761981" stop-color="#303747"></stop><stop offset="1" stop-color="#404a61"></stop></radialGradient><linearGradient gradientUnits="userSpaceOnUse" id="SVGID_00000174560561678314908860000015224195412871022246_" node-id="95" x1="607.2951" x2="607.6984" y1="885.7379" y2="918.8135"><stop offset="0.0000008722046" stop-color="#404a61"></stop><stop offset="1" stop-color="#2f3747"></stop></linearGradient><linearGradient gradientUnits="userSpaceOnUse" id="SVGID_00000083787953944410821120000007152187524912816512_" node-id="108" x1="603.6652" x2="604.232" y1="341.7401" y2="378.5781"><stop offset="0.0000008722046" stop-color="#ffbc61"></stop><stop offset="1" stop-color="#ffc16a"></stop></linearGradient></defs><path d="M 706.56 825.17 L 610.31 826.55 L 514.06 825.17 C 514.06 825.17 516.56 883.50 505.82 925.14 C 500.31 946.51 520.59 964.99 542.65 964.99 L 607.64 964.99 L 612.98 964.99 L 687.41 964.99 C 711.03 964.99 725.40 943.65 719.70 920.73 C 709.42 879.44 706.56 825.17 706.56 825.17 Z" fill="url(#SVGID_1_)" fill-rule="evenodd" node-id="208" stroke="none" target-height="139.82" target-width="215.99222" target-x="504.93002" target-y="825.17"></path><path d="M 846.53 595.02 C 846.53 619.62 841.34 649.76 835.85 674.80 C 829.08 705.64 814.91 734.37 794.53 758.50 L 777.01 779.24 C 751.73 809.17 717.99 830.75 680.22 841.15 L 627.99 855.53 C 613.98 859.39 599.18 859.37 585.18 855.49 L 531.40 840.58 C 495.14 830.53 462.48 810.37 437.22 782.47 L 420.22 763.68 C 403.11 744.78 390.70 724.13 383.91 699.56 C 375.81 670.23 366.63 627.78 366.63 595.02 C 366.63 382.85 376.73 210.85 606.59 210.85 C 811.49 210.85 846.53 382.85 846.53 595.02 Z" fill="url(#SVGID_00000067948043410754306610000013215841572664995234_)" fill-rule="evenodd" node-id="210" stroke="none" target-height="647.5625" target-width="479.90002" target-x="366.63" target-y="210.85"></path><path d="M 368.34 426.82 L 368.34 542.14 L 355.86 556.24 C 355.86 556.24 307.89 484.99 335.30 390.31 C 362.71 295.63 368.34 426.82 368.34 426.82 Z" fill="#593f2a" fill-rule="evenodd" node-id="212" stroke="none" target-height="200.22888" target-width="41.49344" target-x="326.84656" target-y="356.0111"></path><path d="M 508.84 858.11 C 464.86 881.81 393.79 931.03 372.42 936.69 C 300.39 955.78 229.31 1010.28 180.27 1200.00 L 1038.24 1200.00 C 1038.24 1200.00 975.63 996.36 863.43 940.68 C 831.20 925.97 756.24 887.38 718.79 861.41 C 689.06 845.11 665.99 930.80 603.23 934.71 C 549.36 938.06 528.28 864.85 508.84 858.11 Z" fill="#222935" fill-rule="evenodd" node-id="214" stroke="none" target-height="341.89" target-width="857.97" target-x="180.27" target-y="858.11"></path><path d="M 509.25 895.01 L 611.36 985.67 L 707.89 897.33 Z" fill="url(#SVGID_00000160889768968601412780000008111436685543184818_)" fill-rule="evenodd" node-id="216" stroke="none" target-height="90.65997" target-width="198.64001" target-x="509.25" target-y="895.01"></path><path d="M 514.20 851.05 C 509.52 864.26 600.66 891.34 600.66 891.34 C 607.61 894.44 615.53 894.58 622.58 891.72 C 622.58 891.72 690.41 871.87 708.59 850.77 C 709.69 845.91 725.82 860.23 735.95 869.98 C 746.76 880.38 714.33 901.57 714.33 901.57 L 647.47 917.99 L 518.76 903.46 L 484.31 872.88 C 484.32 872.87 488.16 863.66 514.20 851.05 Z" fill="#eaeaea" fill-rule="evenodd" node-id="218" stroke="none" target-height="68.19763" target-width="253.83215" target-x="484.31" target-y="849.79236"></path><path d="M 379.36 1059.89 C 379.36 1059.89 308.17 1084.47 295.18 1200.00 L 335.58 1200.00 C 335.58 1200.00 342.39 1129.97 379.36 1059.89 Z" fill="#1c222b" fill-rule="evenodd" node-id="220" stroke="none" target-height="140.10999" target-width="84.17999" target-x="295.18" target-y="1059.89"></path><path d="M 827.01 1066.56 C 827.01 1066.56 893.03 1138.97 905.02 1200.00 L 858.56 1200.00 C 858.55 1200.00 863.98 1136.64 827.01 1066.56 Z" fill="#1c222b" fill-rule="evenodd" node-id="222" stroke="none" target-height="133.43994" target-width="78.01001" target-x="827.01" target-y="1066.56"></path><g node-id="335"><path d="M 808.61 536.45 C 808.61 536.45 895.34 490.01 917.34 531.89 C 939.34 573.76 885.80 714.15 808.61 684.75 L 808.61 536.45 Z" fill="url(#SVGID_00000086680727764851036470000007692062261192998822_)" fill-rule="evenodd" group-id="1" node-id="226" stroke="none" target-height="174.32788" target-width="113.69708" target-x="808.61" target-y="514.44556"></path><path d="M 864.32 540.19 C 864.32 540.19 910.13 527.57 907.26 562.65 C 904.39 597.74 883.85 669.17 821.25 671.65 L 864.32 540.19 Z" fill="url(#SVGID_00000166656538718951574890000008575120021898260645_)" fill-rule="evenodd" group-id="1" node-id="228" stroke="none" target-height="133.66571" target-width="86.118164" target-x="821.25" target-y="537.9843"></path><path d="M 864.32 540.20 C 864.32 540.20 910.13 527.58 907.26 562.66 C 904.39 597.75 883.85 669.18 821.25 671.66 L 864.32 540.20 Z" fill="url(#SVGID_00000150786012024088682730000015430635180767938212_)" fill-rule="evenodd" group-id="1" node-id="230" stroke="none" target-height="133.66559" target-width="86.118164" target-x="821.25" target-y="537.9944"></path></g><g node-id="336"><path d="M 400.40 682.34 C 323.21 711.74 269.68 571.36 291.67 529.48 C 313.67 487.61 400.40 534.04 400.40 534.04 L 400.40 682.34 Z" fill="url(#SVGID_00000101792629481947521070000015610213229752519812_)" fill-rule="evenodd" group-id="2" node-id="235" stroke="none" target-height="174.32373" target-width="113.69385" target-x="286.70615" target-y="512.0399"></path><path d="M 344.69 537.78 C 344.69 537.78 298.88 525.16 301.75 560.24 C 304.62 595.32 325.16 666.76 387.76 669.24 L 344.69 537.78 Z" fill="url(#SVGID_00000080925042785443287650000009035703777424726672_)" fill-rule="evenodd" group-id="2" node-id="237" stroke="none" target-height="133.66565" target-width="86.118164" target-x="301.64185" target-y="535.57434"></path></g><path d="M 679.61 505.79 C 681.03 484.27 702.01 487.14 714.92 488.00 C 730.98 489.06 761.44 495.63 788.48 516.81 C 800.45 526.19 801.74 535.06 781.08 529.62 C 753.43 522.34 734.69 520.45 722.77 518.64 C 704.02 515.80 678.86 517.08 679.61 505.79 Z" fill="#3a302e" fill-rule="evenodd" node-id="240" stroke="none" target-height="43.85327" target-width="117.471985" target-x="679.61" target-y="487.39612"></path><path d="M 488.72 517.96 C 477.06 519.72 458.74 521.58 431.69 528.70 C 411.48 534.02 412.74 525.34 424.45 516.17 C 450.89 495.46 480.69 489.04 496.40 487.99 C 509.02 487.15 529.55 484.34 530.94 505.39 C 531.65 516.44 507.05 515.18 488.72 517.96 Z" fill="#3a302e" fill-rule="evenodd" node-id="242" stroke="none" target-height="42.893524" target-width="114.90448" target-x="416.03552" target-y="487.39957"></path><path d="M 626.48 696.40 C 626.48 702.94 616.27 708.24 603.68 708.24 C 591.09 708.24 580.88 702.94 580.88 696.40 C 580.88 689.86 591.09 676.46 603.68 676.46 C 616.28 676.46 626.48 689.86 626.48 696.40 Z" fill="#ffcbbb" fill-rule="nonzero" node-id="244" stroke="none" target-height="31.779968" target-width="45.599976" target-x="580.88" target-y="676.46"></path><path d="M 490.03 537.07 C 479.06 537.07 469.31 544.38 463.05 555.74 L 468.47 561.22 L 460.44 561.22 C 457.52 568.35 455.84 576.62 455.84 585.46 C 455.84 612.19 471.15 633.86 490.04 633.86 C 508.93 633.86 524.24 612.19 524.24 585.46 C 524.23 558.74 508.92 537.07 490.03 537.07 Z" fill="#3a302e" fill-rule="evenodd" group-id="3" node-id="248" stroke="none" target-height="96.78998" target-width="68.399994" target-x="455.84" target-y="537.07"></path><path d="M 509.16 576.43 C 509.16 584.27 505.61 590.62 501.22 590.62 C 496.83 590.62 493.28 584.27 493.28 576.43 C 493.28 568.59 496.83 562.24 501.22 562.24 C 505.61 562.24 509.16 568.59 509.16 576.43 Z" fill="#fff9f8" fill-rule="evenodd" group-id="3" node-id="250" stroke="none" target-height="28.380005" target-width="15.880005" target-x="493.28" target-y="562.24"></path><path d="M 723.11 537.07 C 734.08 537.07 743.83 544.38 750.09 555.74 L 744.67 561.22 L 754.49 566.24 C 757.41 573.37 757.30 576.63 757.30 585.46 C 757.30 612.19 741.99 633.86 723.10 633.86 C 704.21 633.86 688.90 612.19 688.90 585.46 C 688.91 558.74 704.23 537.07 723.11 537.07 Z" fill="#3a302e" fill-rule="evenodd" group-id="3" node-id="252" stroke="none" target-height="96.78998" target-width="68.39996" target-x="688.9" target-y="537.07"></path><path d="M 715.18 576.43 C 715.18 584.27 711.63 590.62 707.24 590.62 C 702.85 590.62 699.30 584.27 699.30 576.43 C 699.30 568.59 702.85 562.24 707.24 562.24 C 711.63 562.24 715.18 568.59 715.18 576.43 Z" fill="#fff9f8" fill-rule="evenodd" group-id="3" node-id="254" stroke="none" target-height="28.380005" target-width="15.880005" target-x="699.3" target-y="562.24"></path><path d="M 507.65 693.19 C 507.65 703.80 488.96 712.41 465.90 712.41 C 442.84 712.41 424.15 703.80 424.15 693.19 C 424.15 682.58 442.84 673.97 465.90 673.97 C 488.96 673.97 507.65 682.58 507.65 693.19 Z" fill="#ffc2c2" fill-rule="evenodd" node-id="257" stroke="none" target-height="38.440002" target-width="83.5" target-x="424.15" target-y="673.97"></path><path d="M 796.48 693.19 C 796.48 703.80 777.79 712.41 754.73 712.41 C 731.67 712.41 712.98 703.80 712.98 693.19 C 712.98 682.58 731.67 673.97 754.73 673.97 C 777.79 673.97 796.48 682.58 796.48 693.19 Z" fill="#ffc2c2" fill-rule="evenodd" node-id="259" stroke="none" target-height="38.440002" target-width="83.5" target-x="712.98" target-y="673.97"></path><path d="M 536.89 915.94 C 536.89 915.94 585.45 953.51 594.13 953.51 C 608.51 953.51 606.16 918.00 606.16 918.00 L 597.17 924.31 L 536.89 915.94 Z" fill="#cccccc" fill-rule="evenodd" node-id="261" stroke="none" target-height="37.570007" target-width="69.3775" target-x="536.89" target-y="915.94"></path><path d="M 677.49 917.99 C 677.49 917.99 626.60 958.31 619.06 954.01 C 603.60 945.18 608.56 917.40 608.56 917.40 L 617.21 926.36 L 677.49 917.99 Z" fill="#cccccc" fill-rule="evenodd" node-id="263" stroke="none" target-height="36.908936" target-width="69.67938" target-x="607.8106" target-y="917.4"></path><path d="M 530.35 870.36 C 530.35 870.36 516.97 897.32 519.73 905.18 C 522.49 913.05 588.41 946.02 595.66 944.21 C 601.41 942.77 605.67 918.14 609.22 897.07 C 609.45 895.70 608.50 894.43 607.12 894.23 C 566.39 888.56 530.35 870.36 530.35 870.36 Z" fill="#eaeaea" fill-rule="evenodd" node-id="265" stroke="none" target-height="73.89905" target-width="89.86255" target-x="519.3574" target-y="870.36"></path><path d="M 681.30 871.42 C 683.12 870.92 698.34 900.08 696.15 906.31 C 693.39 914.18 627.47 947.15 620.22 945.34 C 614.46 943.90 608.13 932.98 606.58 898.94 C 606.48 896.74 608.17 894.89 610.36 894.75 C 644.43 892.54 681.30 871.42 681.30 871.42 Z" fill="#eaeaea" fill-rule="evenodd" node-id="267" stroke="none" target-height="73.969055" target-width="89.76459" target-x="606.58" target-y="871.42"></path><path d="M 744.13 170.18 C 744.13 170.18 743.63 133.84 706.43 105.95 C 706.43 105.95 762.48 136.38 766.45 159.62 C 766.45 159.62 820.05 143.75 860.68 162.40 C 860.68 162.40 779.76 164.73 770.42 202.30 L 744.13 170.18 Z" fill="#32333f" fill-rule="evenodd" node-id="269" stroke="none" target-height="96.350006" target-width="154.25" target-x="706.43" target-y="105.95"></path><path d="M 608.64 768.97 C 587.64 768.97 573.60 761.32 572.73 760.83 C 570.32 759.48 569.46 756.43 570.81 754.03 C 572.16 751.62 575.20 750.76 577.60 752.10 L 577.60 752.10 C 578.75 752.73 606.06 767.41 641.32 751.89 C 643.85 750.78 646.80 751.93 647.91 754.45 C 649.02 756.98 647.87 759.93 645.35 761.04 C 631.85 766.98 619.34 768.97 608.64 768.97 Z" fill="#ffb094" fill-rule="nonzero" group-id="4" node-id="273" stroke="none" target-height="17.50354" target-width="78.13373" target-x="570.16925" target-y="751.46643"></path><path d="M 589.15 776.30 C 597.94 777.45 613.58 778.86 627.81 776.77 C 629.81 776.48 630.83 779.07 629.15 780.19 C 624.39 783.35 617.42 786.92 609.76 787.33 C 601.35 787.78 593.10 783.34 587.83 779.71 C 586.21 778.58 587.20 776.04 589.15 776.30 Z" fill="#fcc9bb" fill-rule="evenodd" node-id="276" stroke="none" target-height="11.030029" target-width="42.974854" target-x="587.01886" target-y="776.3"></path><path d="M 734.83 211.20 C 734.83 211.20 858.98 303.45 874.04 381.50 C 891.74 473.21 867.36 519.75 867.36 519.75 C 867.36 519.75 860.17 522.90 846.14 520.74 C 845.18 520.59 842.74 490.70 842.23 490.62 C 784.39 480.92 648.63 466.57 614.48 399.02 C 614.48 399.02 600.38 432.31 560.75 449.62 C 479.93 484.93 446.70 483.81 387.79 486.56 C 352.24 488.22 331.19 449.62 331.12 390.82 C 330.97 268.09 413.13 197.34 528.49 172.18 C 599.92 156.59 657.95 134.59 734.83 211.20 Z" fill="#593f2a" fill-rule="evenodd" node-id="278" stroke="none" target-height="364.57275" target-width="549.3619" target-x="331.12" target-y="156.87056"></path><path d="M 602.90 429.99 C 602.90 429.99 582.33 454.15 551.27 463.78 C 551.27 463.78 600.53 463.71 629.95 430.24 C 629.95 430.24 612.62 460.55 606.57 463.78 C 606.57 463.78 648.63 452.13 662.87 431.31 C 677.11 410.49 658.96 410.49 658.96 410.49 L 602.90 429.99 Z" fill="#593f2a" fill-rule="evenodd" node-id="280" stroke="none" target-height="53.29001" target-width="117.06262" target-x="551.27" target-y="410.49"></path><path d="M 116.32 252.98 L 616.11 61.79 L 1083.68 252.98 L 616.11 382.72 Z" fill="#262830" fill-rule="nonzero" node-id="282" stroke="none" target-height="320.93" target-width="967.36005" target-x="116.32" target-y="61.79"></path><path d="M 116.32 252.98 L 116.32 278.18 L 1083.68 278.18 L 1083.68 252.98 L 616.11 61.79 Z" fill="#32333f" fill-rule="nonzero" node-id="284" stroke="none" target-height="216.38998" target-width="967.36005" target-x="116.32" target-y="61.79"></path><path d="M 652.17 437.10 C 652.17 437.10 666.29 459.08 682.42 460.70 C 682.42 460.70 665.43 447.69 659.91 434.93 C 654.39 422.18 652.17 437.10 652.17 437.10 Z" fill="#593f2a" fill-rule="evenodd" node-id="286" stroke="none" target-height="30.881958" target-width="30.25" target-x="652.17" target-y="429.81805"></path><path d="M 116.32 278.18 L 616.11 86.98 L 1083.68 278.18 L 558.23 407.92 Z" fill="#262830" fill-rule="nonzero" node-id="288" stroke="none" target-height="320.94" target-width="967.36005" target-x="116.32" target-y="86.98"></path><path d="M 877.73 482.54 C 810.94 462.54 801.71 433.43 625.94 430.16 C 463.30 427.14 394.01 471.59 326.83 471.59 C 319.97 436.85 287.78 347.18 380.64 274.85 C 467.61 207.11 609.20 169.98 609.20 169.98 C 609.20 169.98 778.86 216.24 835.94 274.85 C 929.40 370.82 886.29 467.35 877.73 482.54 Z" fill="url(#SVGID_00000121264520010805193810000002746059646100178347_)" fill-rule="nonzero" node-id="290" stroke="none" target-height="312.56" target-width="579.17126" target-x="315.92117" target-y="169.98"></path><path d="M 484.32 872.14 C 477.46 871.82 435.23 900.94 435.23 900.94 L 612.93 1029.06 L 778.62 897.41 C 778.62 897.41 747.41 870.01 734.40 868.49 C 726.76 867.60 611.36 985.67 611.36 985.67 C 611.36 985.67 490.12 872.41 484.32 872.14 Z" fill="url(#SVGID_00000063602895656018901820000010871340821784916659_)" fill-rule="evenodd" node-id="292" stroke="none" target-height="160.57007" target-width="343.38998" target-x="435.23" target-y="868.49"></path><path d="M 436.85 902.98 C 429.99 902.66 387.76 931.78 387.76 931.78 L 612.93 1073.21 L 827.02 922.98 C 827.02 922.98 791.63 898.93 778.62 897.41 C 770.98 896.52 612.93 1029.06 612.93 1029.06 C 612.93 1029.06 442.64 903.24 436.85 902.98 Z" fill="url(#SVGID_00000008148728283561378260000013374430947407610012_)" fill-rule="evenodd" node-id="294" stroke="none" target-height="175.79999" target-width="439.26" target-x="387.76" target-y="897.41"></path><path d="M 596.36 890.03 C 596.36 890.03 556.82 858.23 542.53 863.19 C 528.23 868.15 526.04 937.01 542.53 937.45 C 559.02 937.89 596.36 918.92 596.36 918.92 L 596.36 890.03 Z" fill="url(#SVGID_00000102504614999362093770000012902457961450385053_)" fill-rule="evenodd" group-id="5" node-id="298" stroke="none" target-height="74.753784" target-width="65.37659" target-x="530.9834" target-y="862.6962"></path><path d="M 591.73 892.95 L 571.51 887.96 L 590.57 895.22 Z" fill="#303747" fill-rule="evenodd" group-id="5" node-id="300" stroke="none" target-height="7.2599487" target-width="20.21997" target-x="571.51" target-y="887.96"></path><path d="M 591.35 907.54 L 572.00 915.23 L 591.73 910.06 Z" fill="#303747" fill-rule="evenodd" group-id="5" node-id="302" stroke="none" target-height="7.6900024" target-width="19.72998" target-x="572" target-y="907.54"></path><path d="M 617.48 890.03 C 617.48 890.03 657.02 858.23 671.31 863.19 C 685.60 868.15 687.80 937.01 671.31 937.45 C 654.82 937.89 617.48 918.92 617.48 918.92 L 617.48 890.03 Z" fill="url(#SVGID_00000075142153179160531140000008844521803501454467_)" fill-rule="evenodd" group-id="5" node-id="304" stroke="none" target-height="74.75366" target-width="65.3728" target-x="617.48" target-y="862.69635"></path><path d="M 621.17 892.95 L 641.39 887.96 L 622.33 895.22 Z" fill="#303747" fill-rule="evenodd" group-id="5" node-id="306" stroke="none" target-height="7.2599487" target-width="20.220032" target-x="621.17" target-y="887.96"></path><path d="M 621.55 907.54 L 640.90 915.23 L 621.17 910.06 Z" fill="#303747" fill-rule="evenodd" group-id="5" node-id="308" stroke="none" target-height="7.6900024" target-width="19.730042" target-x="621.17" target-y="907.54"></path><path d="M 616.85 919.99 C 613.96 920.33 611.08 919.23 608.19 919.26 C 604.84 919.29 601.50 920.39 598.15 919.99 C 594.06 919.41 589.41 914.13 588.83 908.74 C 588.47 904.77 588.47 900.79 588.83 896.82 C 589.41 891.43 594.06 886.15 598.15 885.57 C 601.27 885.20 604.38 886.40 607.50 886.40 C 610.62 886.40 613.73 885.20 616.85 885.57 C 620.94 886.15 625.59 891.43 626.17 896.82 C 626.53 900.79 626.53 904.77 626.17 908.74 C 625.59 914.13 620.93 919.40 616.85 919.99 Z" fill="url(#SVGID_00000174560561678314908860000015224195412871022246_)" fill-rule="evenodd" group-id="5" node-id="310" stroke="none" target-height="34.505737" target-width="37.880066" target-x="588.55994" target-y="885.5433"></path><path d="M 560.97 602.42 C 560.97 649.11 523.12 686.96 476.43 686.96 C 429.74 686.96 391.89 649.11 391.89 602.42 C 391.89 555.73 429.74 517.88 476.43 517.88 C 523.12 517.88 560.97 555.73 560.97 602.42 Z" fill="none" group-id="6" node-id="315" stroke="#121928" stroke-linecap="butt" stroke-width="12" target-height="169.08002" target-width="169.07996" target-x="391.89" target-y="517.88"></path><path d="M 821.25 602.42 C 821.25 649.11 783.40 686.96 736.71 686.96 C 690.02 686.96 652.17 649.11 652.17 602.42 C 652.17 555.73 690.02 517.88 736.71 517.88 C 783.40 517.88 821.25 555.73 821.25 602.42 Z" fill="none" group-id="6" node-id="317" stroke="#121928" stroke-linecap="butt" stroke-width="12" target-height="169.08002" target-width="169.08002" target-x="652.17" target-y="517.88"></path><path d="M 563.23 602.42 L 649.94 602.42" fill="none" group-id="6" node-id="319" stroke="#121928" stroke-linecap="butt" stroke-width="12" target-height="0" target-width="86.71002" target-x="563.23" target-y="602.42"></path><path d="M 1040.55 340.58 C 1040.50 340.58 1040.46 340.58 1040.41 340.58 C 1038.75 340.50 1037.47 339.10 1037.55 337.45 C 1039.13 303.10 1026.43 234.56 1026.30 233.87 C 1025.84 231.20 1024.81 227.83 1022.50 226.67 C 1020.07 225.45 1016.99 226.98 1016.96 227.00 C 1015.49 227.74 1013.68 227.17 1012.93 225.71 C 1012.17 224.25 1012.73 222.45 1014.19 221.68 C 1014.42 221.56 1019.94 218.72 1025.13 221.28 C 1028.82 223.10 1031.20 226.98 1032.21 232.81 C 1032.73 235.61 1045.16 302.69 1043.55 337.73 C 1043.47 339.33 1042.14 340.58 1040.55 340.58 Z" fill="#222935" fill-rule="nonzero" group-id="7" node-id="324" stroke="none" target-height="120.36072" target-width="31.090454" target-x="1012.6001" target-y="220.21927"></path><path d="M 1043.60 338.19 L 1037.78 338.19 C 1035.32 338.19 1033.33 336.20 1033.33 333.74 L 1033.33 312.89 C 1033.33 310.43 1035.32 308.44 1037.78 308.44 L 1043.60 308.44 C 1046.06 308.44 1048.05 310.43 1048.05 312.89 L 1048.05 333.74 C 1048.05 336.20 1046.06 338.19 1043.60 338.19 Z" fill="#222935" fill-rule="evenodd" node-id="327" stroke="none" target-height="29.75" target-width="14.720093" target-x="1033.33" target-y="308.44"></path><path d="M 1043.60 337.59 L 1037.78 337.59 C 1035.32 337.59 1033.33 335.60 1033.33 333.14 L 1033.33 314.74 L 1048.05 314.74 L 1048.05 333.14 C 1048.05 335.59 1046.06 337.59 1043.60 337.59 Z" fill="#ffb829" fill-rule="evenodd" node-id="329" stroke="none" target-height="22.850006" target-width="14.720093" target-x="1033.33" target-y="314.74"></path><path d="M 1071.07 605.97 C 1059.27 550.17 1051.91 355.89 1051.14 334.80 C 1051.10 333.76 1050.25 332.94 1049.21 332.94 L 1040.35 332.94 L 1032.44 332.94 C 1031.43 332.94 1030.59 333.72 1030.51 334.72 L 1008.81 609.79 C 1008.77 610.31 1008.94 610.82 1009.28 611.22 C 1010.68 612.83 1014.64 617.12 1018.53 618.98 C 1018.77 619.10 1019.03 619.15 1019.29 619.15 L 1029.86 529.56 L 1024.53 619.90 C 1024.84 621.00 1025.21 621.86 1025.64 622.01 C 1034.77 625.11 1046.40 626.08 1058.89 623.85 C 1067.34 622.35 1072.84 614.38 1071.07 605.97 Z" fill="#262830" fill-rule="evenodd" node-id="331" stroke="none" target-height="292.12" target-width="62.58185" target-x="1008.81" target-y="332.94"></path><path d="M 590.61 370.56 C 484.94 370.56 390.37 359.58 326.94 342.30 C 325.03 346.90 323.41 351.49 322.05 356.05 C 385.33 375.31 487.41 387.39 600.00 387.39 C 722.03 387.39 824.30 374.66 885.67 352.63 C 883.65 346.80 881.26 340.88 878.44 334.89 C 816.44 356.40 710.68 370.56 590.61 370.56 Z" fill="url(#SVGID_00000083787953944410821120000007152187524912816512_)" fill-rule="nonzero" node-id="333" stroke="none" target-height="52.5" target-width="563.62" target-x="322.05" target-y="334.89"></path></svg>